# xmcd
#
# Track frame offsets:
#	150
#	14102
#	30407
#	48363
#	63418
#	80542
#	97622
#	112580
#	125303
#	140666
#	157971
#	172586
#	187987
#	203258
#
# Disc length: 2939 seconds
#
# Revision: 0
# Processed by: cddbd v1.5.2PL0 Copyright (c) Steve Scherf et al.
# Submitted via: audiograbber 1.83.01
#
DISCID=9b0b790e
DTITLE=01 - Mr Music Country 2015-11
DYEAR=1900
DGENRE=Country
TTITLE0=Jesse Alexander - I'd run right back to you
TTITLE1=Wade Bowen - Patch of bad weather
TTITLE2=First Aid Kit - Waitress song
TTITLE3=Jason Michael Carroll - Happened on a saturday night (Suzie Q)
TTITLE4=Rachel Proctor - If you're gonna leave me (Leave me alone)
TTITLE5=Kenny Chesney - You had me from hello
TTITLE6=CAM - My mistake
TTITLE7=Alabama - I'm in a hurry (And don't know why)
TTITLE8=Kellie Coffey - Bluer skies
TTITLE9=Deryl Dodd - Movin' out to the country
TTITLE10=Brad Paisley - Me neither
TTITLE11=Sara Evans - Pray for you
TTITLE12=Travis Tritt - Down the road I go
TTITLE13=Joe Diffie - Honky tonk attitude
EXTD=
EXTT0=
EXTT1=
EXTT2=
EXTT3=
EXTT4=
EXTT5=
EXTT6=
EXTT7=
EXTT8=
EXTT9=
EXTT10=
EXTT11=
EXTT12=
EXTT13=
PLAYORDER=
